<svg width="58" height="16" viewBox="0 0 58 16" fill="none" xmlns="http://www.w3.org/2000/svg">
<rect x="0.27619" y="0.27619" width="57.3787" height="15.4476" rx="1.93333" stroke="black" stroke-width="0.552381"/>
<path d="M6.57085 10.0994C5.14571 10.0994 4.23759 9.1184 4.23759 7.66674C4.23759 6.26149 5.12582 5.26057 6.57085 5.26057C7.77725 5.26057 8.60582 5.9632 8.80468 7.14971H7.98936C7.84353 6.42057 7.30662 5.97646 6.57085 5.97646C5.63622 5.97646 5.05291 6.63269 5.05291 7.66674C5.05291 8.72731 5.63622 9.37691 6.57085 9.37691C7.31988 9.37691 7.84353 8.94606 7.98936 8.21029H8.80468C8.59256 9.41669 7.78388 10.0994 6.57085 10.0994ZM11.6648 10.0994C10.2927 10.0994 9.35143 9.14491 9.35143 7.66674C9.35143 6.26149 10.2397 5.26057 11.6648 5.26057C13.0435 5.26057 13.9914 6.20846 13.9914 7.66674C13.9914 9.08526 13.0966 10.0994 11.6648 10.0994ZM11.6648 9.37691C12.5928 9.37691 13.1827 8.71406 13.1827 7.66674C13.1827 6.63269 12.5928 5.97646 11.6648 5.97646C10.7434 5.97646 10.1601 6.63269 10.1601 7.66674C10.1601 8.71406 10.7434 9.37691 11.6648 9.37691ZM15.5375 10H14.7421V5.36H15.7231L17.1748 9.04549L18.6198 5.36H19.6009V10H18.8054V6.73211L17.5195 10H16.8235L15.5375 6.73874V10ZM21.3634 10H20.568V5.36H21.3634V10ZM23.1177 10H22.3223V5.36H23.184L25.4841 8.85326V5.36H26.2795V10H25.4178L23.1177 6.50674V10ZM29.2502 10.0994C27.951 10.0994 27.0363 9.14491 27.0363 7.66674C27.0363 6.26149 27.9245 5.26057 29.3629 5.26057C30.5693 5.26057 31.3979 5.97646 31.5967 7.14971H30.7814C30.6356 6.42057 30.0987 5.97646 29.3629 5.97646C28.4349 5.97646 27.8516 6.62606 27.8516 7.66674C27.8516 8.72069 28.4415 9.37691 29.3297 9.37691C30.0523 9.37691 30.5229 8.90629 30.5229 8.24343H29.1243V7.57394H30.7085C31.3051 7.57394 31.6299 7.87223 31.6299 8.43566V10H30.9272V8.58149H30.914C30.8212 9.50949 30.2113 10.0994 29.2502 10.0994ZM35.8115 10.0994C34.5919 10.0994 33.7766 9.4896 33.7169 8.56823H34.5322C34.6051 9.072 35.0691 9.39017 35.8115 9.39017C36.4147 9.39017 36.7329 9.15817 36.7329 8.76709C36.7329 8.40251 36.4479 8.25669 35.9971 8.11749L35.2415 7.89211C34.6979 7.7264 33.8495 7.48777 33.8495 6.57966C33.8495 5.81737 34.4792 5.26057 35.5066 5.26057C36.6269 5.26057 37.3427 5.86377 37.4024 6.8448H36.5937C36.5606 6.32114 36.1761 5.96983 35.4801 5.96983C34.9697 5.96983 34.6383 6.18194 34.6383 6.53989C34.6383 6.94423 35.0426 7.04366 35.4934 7.18949L36.196 7.40823C36.8522 7.61371 37.5416 7.85234 37.5416 8.72731C37.5416 9.56914 36.8721 10.0994 35.8115 10.0994ZM40.3541 10.0994C38.982 10.0994 38.0407 9.14491 38.0407 7.66674C38.0407 6.26149 38.9289 5.26057 40.3541 5.26057C41.7328 5.26057 42.6807 6.20846 42.6807 7.66674C42.6807 9.08526 41.7859 10.0994 40.3541 10.0994ZM40.3541 9.37691C41.2821 9.37691 41.872 8.71406 41.872 7.66674C41.872 6.63269 41.2821 5.97646 40.3541 5.97646C39.4327 5.97646 38.8494 6.63269 38.8494 7.66674C38.8494 8.71406 39.4327 9.37691 40.3541 9.37691ZM45.5327 10.0994C44.1605 10.0994 43.2193 9.14491 43.2193 7.66674C43.2193 6.26149 44.1075 5.26057 45.5327 5.26057C46.9114 5.26057 47.8593 6.20846 47.8593 7.66674C47.8593 9.08526 46.9644 10.0994 45.5327 10.0994ZM45.5327 9.37691C46.4607 9.37691 47.0506 8.71406 47.0506 7.66674C47.0506 6.63269 46.4607 5.97646 45.5327 5.97646C44.6113 5.97646 44.028 6.63269 44.028 7.66674C44.028 8.71406 44.6113 9.37691 45.5327 9.37691ZM49.4054 10H48.61V5.36H49.4717L51.7718 8.85326V5.36H52.5672V10H51.7055L49.4054 6.50674V10Z" fill="black"/>
</svg>
